<?xml version="1.0" encoding="UTF-8"?>
<svg xmlns="http://www.w3.org/2000/svg" width="100" height="12" viewBox="0 0 100 12">
  <title>ano-vegetation-ln-tech</title>
  <defs>
    <style>
      .stem { fill: none; stroke: #2e7d32; stroke-width: 2; stroke-linecap: round; }
      .leaf { fill: none; stroke: #43a047; stroke-width: 1.2; stroke-linecap: round; }
    </style>
  </defs>
  <!-- tige sinueuse discrète -->
  <path class="stem" d="M0,6 C12,4.8 24,7.2 36,6 C48,4.8 60,7.2 72,6 C84,4.8 96,7.2 100,6" />
  <!-- petites feuilles alternées -->
  <path class="leaf" d="M12,6 l3,-3 M12,6 l3,3" />
  <path class="leaf" d="M28,6 l3,-3 M28,6 l3,3" />
  <path class="leaf" d="M44,6 l3,-3 M44,6 l3,3" />
  <path class="leaf" d="M60,6 l3,-3 M60,6 l3,3" />
  <path class="leaf" d="M76,6 l3,-3 M76,6 l3,3" />
  <path class="leaf" d="M92,6 l3,-3 M92,6 l3,3" />
</svg>
